<?xml version="1.0" encoding="utf-8"?><svg viewBox="0 0 225 165" xmlns="http://www.w3.org/2000/svg" xmlns:xlink="http://www.w3.org/1999/xlink"><style>:root>svg{display:none}:root>svg:target{display:block}</style><svg viewBox="0 0 225 72" id="Logo" xmlns="http://www.w3.org/2000/svg"><path d="M70.538 36.29c-1.1.632-2.435 1.132-4.005 1.499-1.57.367-3.2.55-4.892.55-2.283 0-4.23-.275-5.84-.825-1.59-.55-2.793-1.315-3.608-2.294-.795-.978-1.193-2.11-1.193-3.394 0-1.12.306-2.11.917-2.966.612-.856 1.458-1.518 2.538-1.987-.836-.428-1.478-1.02-1.926-1.774a5.161 5.161 0 01-.642-2.538c0-1.182.367-2.262 1.1-3.24.755-.98 1.896-1.764 3.425-2.355s3.415-.887 5.657-.887c1.406 0 2.793.133 4.158.398 1.366.265 2.569.622 3.608 1.07l-1.65 4.525a14.408 14.408 0 00-5.872-1.253c-1.447 0-2.527.193-3.24.58-.714.367-1.07.887-1.07 1.56 0 1.223.886 1.835 2.66 1.835h6.053v4.617h-6.451c-1.04 0-1.825.173-2.355.52-.53.326-.795.815-.795 1.467 0 .693.388 1.234 1.162 1.62.775.388 1.978.582 3.608.582 1.162 0 2.355-.153 3.578-.459 1.243-.326 2.324-.764 3.24-1.315l1.835 4.465zm15.584-7.063c1.896.632 2.844 1.937 2.844 3.914 0 1.488-.58 2.66-1.743 3.516-1.162.836-2.874 1.254-5.137 1.254H72.76V21.338h8.898c2.161 0 3.832.378 5.015 1.132 1.203.754 1.804 1.814 1.804 3.18 0 .795-.204 1.498-.612 2.11-.407.611-.988 1.1-1.743 1.467zm-8.164-1.223h3.18c1.346 0 2.018-.5 2.018-1.498 0-.958-.672-1.437-2.018-1.437h-3.18v2.935zm3.609 6.146c1.406 0 2.11-.51 2.11-1.529s-.684-1.529-2.05-1.529h-3.669v3.058h3.609zm18.1-2.14H97.71v5.901H91.9V21.338h5.81v6.116h2.08l4.066-6.116h6.146l-5.565 7.95 5.932 8.623h-6.849l-3.853-5.901zm29.507-10.672v16.573h-5.81V25.955h-4.189l-.122 2.538c-.082 2.161-.296 3.945-.642 5.351-.347 1.407-.918 2.508-1.713 3.303-.795.774-1.885 1.162-3.271 1.162-.714 0-1.652-.133-2.814-.398l.245-4.74c.367.041.612.062.734.062.632 0 1.111-.204 1.437-.612.326-.407.55-.948.673-1.62.122-.693.204-1.61.244-2.752l.245-6.91h14.983zm20.966 0v16.573h-5.535v-1.743a6.122 6.122 0 01-2.201 1.498 6.956 6.956 0 01-2.691.52c-2.161 0-3.883-.632-5.168-1.895-1.263-1.264-1.895-3.16-1.895-5.688v-9.265h5.809v8.317c0 2.385.928 3.578 2.783 3.578.917 0 1.661-.316 2.232-.948.571-.652.856-1.641.856-2.966v-7.98h5.81zm21.542 0v13.546c0 3.078-.835 5.382-2.507 6.91-1.671 1.55-4.077 2.324-7.216 2.324-1.631 0-3.16-.183-4.587-.55-1.426-.367-2.639-.907-3.638-1.62l2.11-4.068c.672.55 1.518.979 2.538 1.285 1.039.326 2.058.489 3.057.489 1.529 0 2.65-.336 3.364-1.01.713-.672 1.07-1.67 1.07-2.996v-.55c-1.121 1.305-2.762 1.957-4.923 1.957-1.468 0-2.823-.326-4.067-.979a7.717 7.717 0 01-2.966-2.813c-.734-1.223-1.1-2.63-1.1-4.22 0-1.569.366-2.955 1.1-4.158a7.43 7.43 0 012.966-2.813c1.244-.672 2.599-1.009 4.067-1.009 2.365 0 4.097.765 5.198 2.294v-2.019h5.534zm-9.356 11.1c1.04 0 1.896-.316 2.568-.948.693-.632 1.04-1.447 1.04-2.446 0-1-.336-1.804-1.009-2.416-.673-.632-1.539-.948-2.599-.948-1.06 0-1.937.316-2.63.948-.672.612-1.009 1.417-1.009 2.416 0 .999.347 1.814 1.04 2.446.693.632 1.559.948 2.599.948zM60.426 46.01v9.979h-2.794v-7.741H53.84v7.74h-2.78V46.01h9.366zm6.11 2.124c.846 0 1.583.161 2.21.484a3.35 3.35 0 011.44 1.398c.342.598.513 1.302.513 2.11 0 .798-.157 1.5-.47 2.11a3.417 3.417 0 01-1.326 1.396c-.57.323-1.231.485-1.982.485-.884 0-1.577-.271-2.081-.813v3.45h-2.709v-6.6c0-.799.181-1.502.542-2.11a3.635 3.635 0 011.54-1.411c.665-.333 1.44-.5 2.323-.5zm-.128 5.83c.485 0 .874-.166 1.169-.499.304-.342.456-.789.456-1.34 0-.55-.152-.993-.456-1.325-.295-.343-.684-.514-1.169-.514s-.874.171-1.169.514c-.294.332-.442.774-.442 1.325 0 .561.143 1.008.428 1.34.294.333.689.5 1.183.5zm9.406 2.153c-.827 0-1.573-.171-2.238-.513a3.924 3.924 0 01-1.568-1.426c-.37-.608-.556-1.297-.556-2.067 0-.76.185-1.444.556-2.053a3.845 3.845 0 011.554-1.411c.665-.342 1.416-.513 2.252-.513.837 0 1.587.17 2.253.513a3.728 3.728 0 011.553 1.411c.371.599.556 1.283.556 2.053s-.185 1.459-.556 2.067a3.823 3.823 0 01-1.553 1.426c-.666.342-1.416.513-2.253.513zm0-2.153c.475 0 .865-.161 1.17-.484.303-.333.455-.79.455-1.369 0-.57-.152-1.017-.456-1.34-.304-.323-.694-.485-1.169-.485-.475 0-.865.162-1.169.485-.304.323-.456.77-.456 1.34 0 .58.152 1.036.456 1.369.304.323.694.484 1.17.484zm9.724.086c.37 0 .689-.052.955-.157.276-.105.551-.276.827-.513l1.411 1.482c-.732.837-1.825 1.255-3.279 1.255-.903 0-1.696-.171-2.38-.513a3.881 3.881 0 01-1.597-1.426c-.37-.608-.556-1.297-.556-2.067 0-.76.185-1.44.556-2.038.37-.609.88-1.084 1.525-1.426.656-.342 1.388-.513 2.196-.513.75 0 1.435.157 2.053.47a3.55 3.55 0 011.496 1.355c.371.589.556 1.292.556 2.11l-5.517 1.054c.295.618.88.927 1.754.927zm-.328-3.992c-.466 0-.846.148-1.14.442-.295.285-.461.699-.5 1.24l3.137-.613a1.405 1.405 0 00-.542-.77 1.549 1.549 0 00-.955-.299zm9.004 3.179H93.3v2.752h-2.708v-7.727H93.3v2.851h.97l1.896-2.85h2.865l-2.594 3.706 2.765 4.02H96.01l-1.796-2.752zm15.951-5.103c.951 0 1.706.285 2.267.855.57.57.855 1.43.855 2.58v4.42h-2.708V52.01c0-.541-.105-.94-.314-1.197-.199-.257-.485-.385-.855-.385-.409 0-.737.142-.984.428-.247.285-.37.717-.37 1.297v3.834h-2.709V52.01c0-1.055-.39-1.582-1.169-1.582-.418 0-.751.142-.998.428-.247.285-.37.717-.37 1.297v3.834h-2.709v-7.726h2.58v.813a2.659 2.659 0 011.012-.699 3.43 3.43 0 011.298-.242c.541 0 1.026.1 1.454.3.427.199.774.503 1.04.912.304-.39.689-.69 1.155-.899a3.68 3.68 0 011.525-.313zm4.762.128h2.694v2.865h2.78v-2.865h2.709v7.727h-2.709V53.28h-2.78v2.709h-2.694v-7.727zm13.688 7.955c-2.557 0-3.835-1.098-3.835-3.293v-4.662h2.694v2.452c.2-.133.466-.242.798-.328a4.84 4.84 0 011.169-.128c.951 0 1.697.242 2.238.727.542.475.813 1.183.813 2.124 0 1.017-.352 1.791-1.055 2.324-.694.522-1.635.784-2.822.784zm4.518-7.955h2.709v7.727h-2.709v-7.727zm-4.518 6.101c.37 0 .651-.109.841-.328.19-.218.285-.508.285-.869 0-.352-.095-.627-.285-.827-.19-.2-.466-.3-.827-.3a1.57 1.57 0 00-.684.143c-.2.095-.357.224-.471.385v.599c0 .37.095.665.285.884.19.209.475.313.856.313zm13.137-.313a2.6 2.6 0 00.955-.157c.276-.105.551-.276.827-.513l1.411 1.482c-.732.837-1.825 1.255-3.279 1.255-.902 0-1.696-.171-2.38-.513-.684-.343-1.217-.818-1.597-1.426-.37-.608-.556-1.297-.556-2.067 0-.76.186-1.44.556-2.038a3.868 3.868 0 011.526-1.426c.655-.342 1.387-.513 2.195-.513a4.47 4.47 0 012.053.47 3.547 3.547 0 011.496 1.355c.371.589.556 1.292.556 2.11l-5.516 1.054c.294.618.879.927 1.753.927zm-.328-3.992c-.466 0-.846.148-1.14.442-.295.285-.461.699-.499 1.24l3.136-.613a1.406 1.406 0 00-.542-.77 1.549 1.549 0 00-.955-.299zm13.409 6.059c-.855 0-1.62-.171-2.295-.513a3.908 3.908 0 01-1.583-1.426c-.37-.608-.555-1.297-.555-2.067 0-.77.185-1.454.555-2.053a3.81 3.81 0 011.583-1.411c.675-.342 1.44-.513 2.295-.513.874 0 1.63.19 2.267.57.636.37 1.088.889 1.354 1.554l-2.096 1.069c-.351-.694-.865-1.04-1.539-1.04-.485 0-.889.16-1.212.484-.314.323-.47.77-.47 1.34 0 .58.156 1.036.47 1.369.323.323.727.484 1.212.484.674 0 1.188-.347 1.539-1.04l2.096 1.069a3.155 3.155 0 01-1.354 1.568c-.637.37-1.393.556-2.267.556zm12.708-7.855v7.727h-2.58v-.813a2.856 2.856 0 01-1.026.698c-.39.162-.808.243-1.255.243-1.007 0-1.81-.295-2.409-.884-.589-.59-.884-1.473-.884-2.651v-4.32h2.709v3.878c0 1.111.432 1.667 1.297 1.667.428 0 .774-.147 1.04-.442.267-.304.4-.765.4-1.382v-3.72h2.708zm5.696 7.855c-.855 0-1.621-.171-2.295-.513a3.908 3.908 0 01-1.583-1.426c-.37-.608-.556-1.297-.556-2.067 0-.77.186-1.454.556-2.053a3.81 3.81 0 011.583-1.411c.674-.342 1.44-.513 2.295-.513.874 0 1.63.19 2.266.57.637.37 1.089.889 1.355 1.554l-2.096 1.069c-.351-.694-.865-1.04-1.539-1.04-.485 0-.889.16-1.212.484-.314.323-.471.77-.471 1.34 0 .58.157 1.036.471 1.369.323.323.727.484 1.212.484.674 0 1.188-.347 1.539-1.04l2.096 1.069a3.153 3.153 0 01-1.355 1.568c-.636.37-1.392.556-2.266.556zm14.818-7.983c.95 0 1.706.285 2.266.855.571.57.856 1.43.856 2.58v4.42h-2.709V52.01c0-.541-.104-.94-.313-1.197-.2-.257-.485-.385-.856-.385-.408 0-.736.142-.983.428-.247.285-.371.717-.371 1.297v3.834h-2.708V52.01c0-1.055-.39-1.582-1.169-1.582-.419 0-.751.142-.998.428-.247.285-.371.717-.371 1.297v3.834h-2.708v-7.726h2.58v.813a2.651 2.651 0 011.012-.699 3.421 3.421 0 011.297-.242c.542 0 1.027.1 1.454.3.428.199.775.503 1.041.912.304-.39.689-.69 1.155-.899a3.679 3.679 0 011.525-.313zm8.853 5.916a2.6 2.6 0 00.955-.157c.276-.105.551-.276.827-.513l1.411 1.482c-.732.837-1.824 1.255-3.279 1.255-.902 0-1.696-.171-2.38-.513-.684-.343-1.217-.818-1.597-1.426-.37-.608-.556-1.297-.556-2.067 0-.76.186-1.44.556-2.038a3.868 3.868 0 011.526-1.426c.655-.342 1.387-.513 2.195-.513a4.47 4.47 0 012.053.47 3.547 3.547 0 011.496 1.355c.371.589.556 1.292.556 2.11l-5.516 1.054c.294.618.879.927 1.753.927zm-.328-3.992c-.466 0-.846.148-1.14.442-.295.285-.461.699-.499 1.24l3.136-.613a1.406 1.406 0 00-.542-.77 1.549 1.549 0 00-.955-.299zm12.881 5.931v-4.063l-1.981 3.378h-1.155l-1.924-3.435v4.12h-2.438v-7.727h2.851l2.153 4.034 2.366-4.034h2.552l.014 7.727h-2.438zm7.943.228c-2.556 0-3.834-1.098-3.834-3.293v-4.662h2.694v2.452c.2-.133.466-.242.798-.328a4.833 4.833 0 011.169-.128c.951 0 1.697.242 2.238.727.542.475.813 1.183.813 2.124 0 1.017-.352 1.791-1.055 2.324-.694.522-1.635.784-2.823.784zm4.519-7.955h2.709v7.727h-2.709v-7.727zm-4.519 6.101c.371 0 .651-.109.841-.328.191-.218.286-.508.286-.869 0-.352-.095-.627-.286-.827-.19-.2-.465-.3-.826-.3-.257 0-.485.048-.685.143a1.188 1.188 0 00-.47.385v.599c0 .37.095.665.285.884.19.209.475.313.855.313zM9.345 42.715l8.006-18.44h2.685v5.217l-5.681 13.223h4.235v-2.376c0-.579.964-.62 1.446-.569v7.283c-1.322 0-1.515-.447-1.446-.671v-2.066h-5.01L1.184 72H.72l3.151-9.555s-2.79-1.085-1.86-3.41c.93-2.323 6.508-14.72 6.508-14.72H2.011v-1.6h7.334z"/><path d="M30.211 42.715l-8.005-18.44H19.52v5.217l5.68 13.223h-4.235v-2.376c0-.579-.964-.62-1.446-.569v7.283c1.322 0 1.515-.447 1.446-.671v-2.066h5.01L38.372 72h.465l-3.15-9.555s2.788-1.085 1.859-3.41c-.93-2.323-6.508-14.72-6.508-14.72h6.508v-1.6H30.21z"/><path fill-rule="evenodd" clip-rule="evenodd" d="M19.83 21.59a5.475 5.475 0 100-10.95 5.475 5.475 0 000 10.95zm0 2.995a8.47 8.47 0 100-16.94 8.47 8.47 0 000 16.94z"/><path d="M18.28 0h3.1v8.16h-3.1V0z"/></svg><svg viewBox="0 0 225 72" id="Logo-white" xmlns="http://www.w3.org/2000/svg"><path d="M70.538 36.29c-1.1.633-2.435 1.132-4.005 1.499-1.57.367-3.2.55-4.892.55-2.283 0-4.23-.275-5.84-.825-1.59-.55-2.793-1.315-3.608-2.294-.795-.978-1.193-2.11-1.193-3.394 0-1.12.306-2.11.917-2.966.612-.856 1.458-1.518 2.538-1.987-.836-.428-1.478-1.02-1.926-1.774a5.161 5.161 0 01-.642-2.537c0-1.183.367-2.263 1.1-3.242.755-.978 1.896-1.763 3.425-2.354 1.529-.591 3.415-.887 5.657-.887 1.406 0 2.793.133 4.158.398 1.366.265 2.569.622 3.608 1.07l-1.65 4.525a14.408 14.408 0 00-5.872-1.253c-1.447 0-2.527.193-3.24.58-.714.368-1.07.887-1.07 1.56 0 1.223.886 1.835 2.66 1.835h6.053v4.617h-6.451c-1.04 0-1.825.173-2.355.52-.53.326-.795.815-.795 1.467 0 .693.388 1.234 1.162 1.62.775.388 1.978.582 3.608.582 1.162 0 2.355-.153 3.578-.459 1.243-.326 2.324-.764 3.24-1.315l1.835 4.465zm15.584-7.063c1.896.632 2.844 1.937 2.844 3.914 0 1.488-.58 2.66-1.743 3.517-1.162.835-2.874 1.253-5.137 1.253H72.76V21.338h8.898c2.161 0 3.832.378 5.015 1.132 1.203.754 1.804 1.814 1.804 3.18 0 .795-.204 1.498-.612 2.11-.407.611-.988 1.1-1.743 1.467zm-8.164-1.223h3.18c1.346 0 2.018-.5 2.018-1.498 0-.958-.672-1.437-2.018-1.437h-3.18v2.935zm3.609 6.146c1.406 0 2.11-.51 2.11-1.529s-.684-1.529-2.05-1.529h-3.669v3.058h3.609zm18.1-2.14H97.71v5.901H91.9V21.338h5.81v6.116h2.08l4.066-6.116h6.146l-5.565 7.95 5.932 8.623h-6.849l-3.853-5.901zm29.507-10.672v16.573h-5.81V25.956h-4.189l-.122 2.538c-.082 2.16-.296 3.944-.642 5.35-.347 1.407-.918 2.508-1.713 3.303-.795.774-1.885 1.162-3.271 1.162-.714 0-1.652-.133-2.814-.398l.245-4.74c.367.041.612.062.734.062.632 0 1.111-.204 1.437-.612.326-.407.55-.948.673-1.62.122-.693.204-1.61.244-2.752l.245-6.91h14.983zm20.966 0v16.573h-5.535v-1.743a6.122 6.122 0 01-2.201 1.498 6.956 6.956 0 01-2.691.52c-2.161 0-3.883-.632-5.168-1.895-1.263-1.264-1.895-3.16-1.895-5.688v-9.265h5.809v8.317c0 2.385.928 3.578 2.783 3.578.917 0 1.661-.316 2.232-.948.571-.652.856-1.64.856-2.966v-7.98h5.81zm21.542 0v13.546c0 3.078-.835 5.382-2.507 6.91-1.671 1.55-4.077 2.324-7.216 2.324-1.631 0-3.16-.183-4.587-.55-1.426-.367-2.639-.907-3.638-1.62l2.11-4.067c.672.55 1.518.978 2.538 1.284 1.039.326 2.058.489 3.057.489 1.529 0 2.65-.336 3.364-1.009.713-.673 1.07-1.672 1.07-2.997v-.55c-1.121 1.305-2.762 1.957-4.923 1.957-1.468 0-2.823-.326-4.067-.978a7.717 7.717 0 01-2.966-2.813c-.734-1.224-1.1-2.63-1.1-4.22 0-1.57.366-2.956 1.1-4.159a7.43 7.43 0 012.966-2.813c1.244-.672 2.599-1.009 4.067-1.009 2.365 0 4.097.765 5.198 2.294v-2.018h5.534zm-9.356 11.1c1.04 0 1.896-.316 2.568-.948.693-.632 1.04-1.447 1.04-2.446 0-.999-.336-1.804-1.009-2.416-.673-.632-1.539-.948-2.599-.948-1.06 0-1.937.316-2.63.948-.672.612-1.009 1.417-1.009 2.416 0 .999.347 1.814 1.04 2.446.693.632 1.559.948 2.599.948zM60.426 46.01v9.979h-2.794v-7.741H53.84v7.74h-2.78V46.01h9.366zm6.11 2.124c.846 0 1.583.161 2.21.485a3.35 3.35 0 011.44 1.397c.342.598.513 1.302.513 2.11 0 .798-.157 1.501-.47 2.11a3.417 3.417 0 01-1.326 1.396c-.57.323-1.231.485-1.982.485-.884 0-1.577-.27-2.081-.813v3.45h-2.709v-6.6c0-.798.181-1.502.542-2.11a3.635 3.635 0 011.54-1.411c.665-.333 1.44-.5 2.323-.5zm-.128 5.83c.485 0 .874-.166 1.169-.499.304-.342.456-.788.456-1.34 0-.55-.152-.993-.456-1.325-.295-.342-.684-.514-1.169-.514s-.874.172-1.169.514c-.294.332-.442.774-.442 1.325 0 .561.143 1.008.428 1.34.294.333.689.5 1.183.5zm9.406 2.153c-.827 0-1.573-.171-2.238-.513a3.924 3.924 0 01-1.568-1.426c-.37-.608-.556-1.297-.556-2.067 0-.76.185-1.444.556-2.053a3.845 3.845 0 011.554-1.41c.665-.343 1.416-.514 2.252-.514.837 0 1.587.171 2.253.513a3.728 3.728 0 011.553 1.411c.371.6.556 1.283.556 2.053s-.185 1.459-.556 2.067a3.823 3.823 0 01-1.553 1.426c-.666.342-1.416.513-2.253.513zm0-2.153c.475 0 .865-.161 1.17-.484.303-.333.455-.79.455-1.369 0-.57-.152-1.017-.456-1.34-.304-.323-.694-.485-1.169-.485-.475 0-.865.162-1.169.485-.304.323-.456.77-.456 1.34 0 .58.152 1.036.456 1.369.304.323.694.484 1.17.484zm9.724.086c.37 0 .689-.052.955-.157.276-.105.551-.276.827-.513l1.411 1.482c-.732.837-1.825 1.255-3.279 1.255-.903 0-1.696-.171-2.38-.513a3.881 3.881 0 01-1.597-1.426c-.37-.608-.556-1.297-.556-2.067 0-.76.185-1.44.556-2.038.37-.609.88-1.084 1.525-1.426.656-.342 1.388-.513 2.196-.513.75 0 1.435.157 2.053.47a3.55 3.55 0 011.496 1.355c.371.589.556 1.292.556 2.11l-5.517 1.054c.295.618.88.927 1.754.927zm-.328-3.992c-.466 0-.846.148-1.14.442-.295.285-.461.699-.5 1.24l3.137-.613a1.405 1.405 0 00-.542-.77 1.549 1.549 0 00-.955-.299zm9.004 3.179H93.3v2.752h-2.708v-7.727H93.3v2.851h.97l1.896-2.85h2.865l-2.594 3.706 2.765 4.02H96.01l-1.796-2.752zm15.951-5.103c.951 0 1.706.285 2.267.855.57.57.855 1.43.855 2.58v4.42h-2.708V52.01c0-.541-.105-.94-.314-1.197-.199-.257-.485-.385-.855-.385-.409 0-.737.143-.984.428-.247.285-.37.717-.37 1.297v3.835h-2.709V52.01c0-1.055-.39-1.582-1.169-1.582-.418 0-.751.143-.998.428-.247.285-.37.717-.37 1.297v3.835h-2.709v-7.727h2.58v.813a2.659 2.659 0 011.012-.699 3.43 3.43 0 011.298-.242c.541 0 1.026.1 1.454.3.427.199.774.503 1.04.912a2.98 2.98 0 011.155-.898 3.682 3.682 0 011.525-.314zm4.762.128h2.694v2.865h2.78v-2.865h2.709v7.727h-2.709V53.28h-2.78v2.709h-2.694v-7.727zm13.688 7.955c-2.557 0-3.835-1.098-3.835-3.293v-4.662h2.694v2.452c.2-.133.466-.242.798-.328a4.84 4.84 0 011.169-.128c.951 0 1.697.242 2.238.727.542.475.813 1.183.813 2.124 0 1.017-.352 1.791-1.055 2.324-.694.522-1.635.784-2.822.784zm4.518-7.955h2.709v7.727h-2.709v-7.727zm-4.518 6.102c.37 0 .651-.11.841-.328.19-.219.285-.509.285-.87 0-.352-.095-.627-.285-.827-.19-.2-.466-.3-.827-.3a1.57 1.57 0 00-.684.143c-.2.096-.357.224-.471.385v.6c0 .37.095.664.285.883.19.209.475.314.856.314zm13.137-.314a2.6 2.6 0 00.955-.157c.276-.105.551-.276.827-.513l1.411 1.482c-.732.837-1.825 1.255-3.279 1.255-.902 0-1.696-.171-2.38-.513a3.885 3.885 0 01-1.597-1.426c-.37-.608-.556-1.297-.556-2.067 0-.76.186-1.44.556-2.038a3.868 3.868 0 011.526-1.426c.655-.342 1.387-.513 2.195-.513a4.47 4.47 0 012.053.47 3.547 3.547 0 011.496 1.355c.371.589.556 1.292.556 2.11l-5.516 1.054c.294.618.879.927 1.753.927zm-.328-3.992c-.466 0-.846.148-1.14.442-.295.285-.461.699-.499 1.24l3.136-.613a1.406 1.406 0 00-.542-.77 1.549 1.549 0 00-.955-.299zm13.409 6.059c-.855 0-1.62-.171-2.295-.513a3.908 3.908 0 01-1.583-1.426c-.37-.608-.555-1.297-.555-2.067 0-.77.185-1.454.555-2.053a3.81 3.81 0 011.583-1.41c.675-.343 1.44-.514 2.295-.514.874 0 1.63.19 2.267.57.636.37 1.088.889 1.354 1.554l-2.096 1.07c-.351-.695-.865-1.042-1.539-1.042-.485 0-.889.162-1.212.485-.314.323-.47.77-.47 1.34 0 .58.156 1.036.47 1.369.323.323.727.484 1.212.484.674 0 1.188-.346 1.539-1.04l2.096 1.069a3.155 3.155 0 01-1.354 1.568c-.637.37-1.393.556-2.267.556zm12.708-7.855v7.727h-2.58v-.813a2.856 2.856 0 01-1.026.699c-.39.161-.808.242-1.255.242-1.007 0-1.81-.295-2.409-.884-.589-.59-.884-1.473-.884-2.651v-4.32h2.709v3.878c0 1.112.432 1.668 1.297 1.668.428 0 .774-.148 1.04-.442.267-.304.4-.765.4-1.383v-3.72h2.708zm5.696 7.855c-.855 0-1.621-.171-2.295-.513a3.908 3.908 0 01-1.583-1.426c-.37-.608-.556-1.297-.556-2.067 0-.77.186-1.454.556-2.053a3.81 3.81 0 011.583-1.41c.674-.343 1.44-.514 2.295-.514.874 0 1.63.19 2.266.57.637.37 1.089.889 1.355 1.554l-2.096 1.07c-.351-.695-.865-1.042-1.539-1.042-.485 0-.889.162-1.212.485-.314.323-.471.77-.471 1.34 0 .58.157 1.036.471 1.369.323.323.727.484 1.212.484.674 0 1.188-.346 1.539-1.04l2.096 1.069a3.153 3.153 0 01-1.355 1.568c-.636.37-1.392.556-2.266.556zm14.818-7.983c.95 0 1.706.285 2.266.855.571.57.856 1.43.856 2.58v4.42h-2.709V52.01c0-.541-.104-.94-.313-1.197-.2-.257-.485-.385-.856-.385-.408 0-.736.143-.983.428-.247.285-.371.717-.371 1.297v3.835h-2.708V52.01c0-1.055-.39-1.582-1.169-1.582-.419 0-.751.143-.998.428-.247.285-.371.717-.371 1.297v3.835h-2.708v-7.727h2.58v.813a2.651 2.651 0 011.012-.699 3.421 3.421 0 011.297-.242c.542 0 1.027.1 1.454.3.428.199.775.503 1.041.912a2.98 2.98 0 011.155-.898 3.68 3.68 0 011.525-.314zm8.853 5.916a2.6 2.6 0 00.955-.157c.276-.105.551-.276.827-.513l1.411 1.482c-.732.837-1.824 1.255-3.279 1.255-.902 0-1.696-.171-2.38-.513a3.885 3.885 0 01-1.597-1.426c-.37-.608-.556-1.297-.556-2.067 0-.76.186-1.44.556-2.038a3.868 3.868 0 011.526-1.426c.655-.342 1.387-.513 2.195-.513a4.47 4.47 0 012.053.47 3.547 3.547 0 011.496 1.355c.371.589.556 1.292.556 2.11l-5.516 1.054c.294.618.879.927 1.753.927zm-.328-3.992c-.466 0-.846.148-1.14.442-.295.285-.461.699-.499 1.24l3.136-.613a1.406 1.406 0 00-.542-.77 1.549 1.549 0 00-.955-.299zm12.881 5.931v-4.063l-1.981 3.378h-1.155l-1.924-3.435v4.12h-2.438v-7.727h2.851l2.153 4.035 2.366-4.035h2.552l.014 7.727h-2.438zm7.943.228c-2.556 0-3.834-1.098-3.834-3.293v-4.662h2.694v2.452c.2-.133.466-.242.798-.328a4.833 4.833 0 011.169-.128c.951 0 1.697.242 2.238.727.542.475.813 1.183.813 2.124 0 1.017-.352 1.791-1.055 2.324-.694.522-1.635.784-2.823.784zm4.519-7.955h2.709v7.727h-2.709v-7.727zm-4.519 6.102c.371 0 .651-.11.841-.328.191-.219.286-.509.286-.87 0-.352-.095-.627-.286-.827-.19-.2-.465-.3-.826-.3-.257 0-.485.048-.685.143a1.188 1.188 0 00-.47.385v.6c0 .37.095.664.285.883.19.209.475.314.855.314zM9.345 42.714l8.006-18.439h2.685v5.217l-5.681 13.222h4.235V40.34c0-.579.964-.62 1.446-.569v7.283c-1.322 0-1.515-.448-1.446-.671v-2.066h-5.01L1.184 72H.72l3.151-9.555s-2.79-1.085-1.86-3.41c.93-2.323 6.508-14.72 6.508-14.72H2.011v-1.6h7.334z"/><path d="M30.211 42.714l-8.005-18.439H19.52v5.217l5.68 13.222h-4.235V40.34c0-.579-.964-.62-1.446-.569v7.283c1.322 0 1.515-.448 1.446-.671v-2.066h5.01L38.372 72h.465l-3.15-9.555s2.788-1.085 1.859-3.41c-.93-2.323-6.508-14.72-6.508-14.72h6.508v-1.6H30.21z"/><path fill-rule="evenodd" clip-rule="evenodd" d="M19.83 21.59a5.475 5.475 0 100-10.95 5.475 5.475 0 000 10.95zm0 2.995a8.47 8.47 0 100-16.94 8.47 8.47 0 000 16.94z"/><path d="M18.28 0h3.1v8.16h-3.1V0z"/></svg><svg viewBox="0 0 190 165" id="about-icon-1" xmlns="http://www.w3.org/2000/svg"><circle cx="60" cy="105" r="60"/><path fill-rule="evenodd" clip-rule="evenodd" d="M101.131 15.49a.973.973 0 011.332-.359l57.049 33.041c.466.27.626.87.357 1.338a.973.973 0 01-1.332.359l-57.049-33.041a.982.982 0 01-.357-1.338z"/><path fill-rule="evenodd" clip-rule="evenodd" d="M123.502 1.875a13.998 13.998 0 0113.996 0l.002.001L183 27.881a14.006 14.006 0 017 12.113v52.012a14.004 14.004 0 01-7 12.113l-.004.002-45.496 26.003-.001.001a14.004 14.004 0 01-13.998 0l-.001-.001-45.496-26.003-.004-.002a14 14 0 01-7-12.113V39.994a14.005 14.005 0 017-12.113l.004-.002L123.5 1.876l.002-.001zM130.5 2c-2.106 0-4.176.555-6 1.608l-.004.003L79 29.614h-.002A12.002 12.002 0 0073 39.996v52.01a12.004 12.004 0 005.998 10.38l.002.001 45.5 26.006a12.003 12.003 0 0012 0l.004-.003L182 102.386l.002-.001A12.004 12.004 0 00188 92.005v-52.01a12.004 12.004 0 00-5.998-10.38l-.002-.001L136.504 3.61l-.004-.003a11.999 11.999 0 00-6-1.608z"/><path fill-rule="evenodd" clip-rule="evenodd" d="M73.133 33.488a.993.993 0 011.349-.357L130 64.896l55.518-31.765a.993.993 0 011.349.357.97.97 0 01-.36 1.334l-56.013 32.047a.996.996 0 01-.988 0L73.493 34.822a.97.97 0 01-.36-1.334z"/><path fill-rule="evenodd" clip-rule="evenodd" d="M130 65a.99.99 0 011 .978v64.045a.99.99 0 01-1 .977.99.99 0 01-1-.977V65.978a.99.99 0 011-.978z"/></svg><svg viewBox="0 0 190 165" id="about-icon-2" xmlns="http://www.w3.org/2000/svg"><circle cx="64" cy="101" r="63.468" stroke="#F90" stroke-width="1.065"/><path fill-rule="evenodd" clip-rule="evenodd" d="M121.677 50.032c-9.406 0-17.032 7.626-17.032 17.032 0 9.407 7.626 17.033 17.032 17.033 9.407 0 17.033-7.626 17.033-17.032 0-9.407-7.626-17.033-17.033-17.033zm-19.161 17.032c0-10.582 8.579-19.16 19.161-19.16 10.583 0 19.162 8.578 19.162 19.16 0 10.583-8.579 19.162-19.162 19.162-10.582 0-19.161-8.579-19.161-19.162z"/><path fill-rule="evenodd" clip-rule="evenodd" d="M122.21 2.135a11.03 11.03 0 00-11.029 11.029v1.032a11.047 11.047 0 01-6.695 10.11 1.07 1.07 0 01-.421.086h-.264a11.049 11.049 0 01-11.974-2.3l-.008-.009-.363-.363a11.03 11.03 0 00-15.606 0h-.001a11.03 11.03 0 000 15.607l.372.371a11.047 11.047 0 012.222 12.154 11.046 11.046 0 01-10.097 7.2h-.569a11.028 11.028 0 100 22.058h1.032a11.046 11.046 0 0110.107 6.69 11.046 11.046 0 01-2.212 12.179l-.008.008-.363.363a11.032 11.032 0 000 15.607 11.02 11.02 0 007.804 3.235 11.03 11.03 0 007.803-3.235l.371-.371a11.045 11.045 0 0112.154-2.223 11.045 11.045 0 017.199 10.098l.001.025v.544a11.032 11.032 0 0011.029 11.029 11.028 11.028 0 0011.028-11.029v-1.032a11.047 11.047 0 016.69-10.107 11.046 11.046 0 0112.18 2.211l.008.008.363.363a11.036 11.036 0 007.804 3.235 11.028 11.028 0 007.803-3.234v-.001a11.028 11.028 0 000-15.606l-.371-.372a11.044 11.044 0 01-2.212-12.18 11.045 11.045 0 0110.107-6.69h.549a11.031 11.031 0 0011.029-11.028 11.03 11.03 0 00-11.029-11.03h-1.033a11.045 11.045 0 01-10.109-6.694 1.066 1.066 0 01-.086-.42v-.265a11.048 11.048 0 012.3-11.973l.008-.009.363-.363a11.022 11.022 0 003.235-7.803 11.03 11.03 0 00-3.235-7.803 11.037 11.037 0 00-7.803-3.235 11.028 11.028 0 00-7.803 3.234l-.372.372a11.047 11.047 0 01-12.18 2.211 11.046 11.046 0 01-6.689-10.107v-.548a11.027 11.027 0 00-11.029-11.03zm-9.308 1.72a13.16 13.16 0 0118.616 0 13.166 13.166 0 013.855 9.309v.542a8.92 8.92 0 005.402 8.154l.01.004a8.91 8.91 0 009.826-1.778l.004-.004.354-.355c.001 0 0 0 0 0a13.172 13.172 0 019.314-3.86 13.163 13.163 0 019.312 3.86 13.153 13.153 0 013.861 9.313 13.154 13.154 0 01-3.861 9.313l-.354.354-.004.004a8.91 8.91 0 00-1.779 9.827c.06.135.091.282.091.43v.259a8.913 8.913 0 008.068 5.206h1.026a13.165 13.165 0 010 26.327h-.542a8.907 8.907 0 00-8.154 5.402l-.005.01a8.91 8.91 0 001.778 9.826l.005.004.354.355a13.156 13.156 0 013.861 9.313 13.154 13.154 0 01-3.861 9.313 13.16 13.16 0 01-14.353 2.856 13.16 13.16 0 01-4.272-2.856c0-.001 0 0 0 0l-.355-.355-.004-.004a8.91 8.91 0 00-9.826-1.778l-.011.004a8.913 8.913 0 00-5.401 8.154v1.026a13.167 13.167 0 01-13.163 13.164 13.164 13.164 0 01-13.164-13.164v-.532a8.914 8.914 0 00-5.833-8.143l-.034-.013a8.908 8.908 0 00-9.859 1.77l-.354.354a13.154 13.154 0 01-9.313 3.861 13.154 13.154 0 01-9.314-3.861 13.158 13.158 0 01-2.856-14.353 13.162 13.162 0 012.857-4.272l.355-.355.004-.004a8.912 8.912 0 001.778-9.826l-.005-.01a8.913 8.913 0 00-8.154-5.402h-1.025a13.164 13.164 0 010-26.327h.531a8.912 8.912 0 008.17-5.896 8.912 8.912 0 00-1.78-9.826l-.357-.358a13.16 13.16 0 01-2.858-14.354 13.162 13.162 0 012.858-4.273 13.162 13.162 0 0118.625.001l.358.359a8.913 8.913 0 009.826 1.778c.136-.06.283-.09.431-.09h.259a8.912 8.912 0 005.206-8.068v-1.026a13.16 13.16 0 013.856-9.308z"/></svg><svg viewBox="0 0 31 31" id="btn" xmlns="http://www.w3.org/2000/svg"><path fill-rule="evenodd" clip-rule="evenodd" d="M15.057 15.057V0h.886v15.057H31v.886H15.943V31h-.886V15.943H0v-.886h15.057z"/></svg><svg viewBox="0 0 31 31" id="btn-white" xmlns="http://www.w3.org/2000/svg"><path fill-rule="evenodd" clip-rule="evenodd" d="M15.057 15.057V0h.886v15.057H31v.886H15.943V31h-.886V15.943H0v-.886h15.057z"/></svg><svg viewBox="0 0 60 60" id="fb" xmlns="http://www.w3.org/2000/svg"><path d="M30 0C13.5 0 0 13.524 0 30.18 0 45.242 10.98 57.742 25.32 60V38.916H17.7V30.18h7.62v-6.657c0-7.56 4.47-11.717 11.34-11.717 3.27 0 6.69.572 6.69.572v7.44h-3.78c-3.72 0-4.89 2.32-4.89 4.7v5.662h8.34l-1.35 8.735h-6.99V60a29.97 29.97 0 0018.15-10.21A30.192 30.192 0 0060 30.18C60 13.525 46.5 0 30 0z"/></svg><svg viewBox="0 0 60 60" id="inst" xmlns="http://www.w3.org/2000/svg"><path d="M24.258 30a5.742 5.742 0 1011.484 0 5.742 5.742 0 00-11.484 0z"/><path d="M16.571 19.84a5.338 5.338 0 011.289-1.98 5.334 5.334 0 011.98-1.289c.607-.236 1.52-.516 3.199-.593 1.817-.083 2.361-.1 6.961-.1s5.145.017 6.961.1c1.68.077 2.592.357 3.199.593a5.33 5.33 0 011.98 1.289 5.34 5.34 0 011.29 1.98c.235.607.516 1.52.592 3.2.083 1.816.1 2.36.1 6.96s-.017 5.145-.1 6.962c-.076 1.68-.357 2.591-.593 3.198a5.34 5.34 0 01-1.288 1.98 5.333 5.333 0 01-1.98 1.29c-.608.236-1.52.516-3.2.593-1.816.082-2.36.1-6.96.1-4.601 0-5.146-.018-6.962-.1-1.68-.077-2.592-.358-3.199-.594a5.705 5.705 0 01-3.269-3.269c-.236-.607-.516-1.519-.593-3.198-.083-1.817-.1-2.362-.1-6.962s.017-5.144.1-6.96c.076-1.68.357-2.593.593-3.2zM30 38.846a8.846 8.846 0 100-17.692A8.846 8.846 0 0021.154 30 8.846 8.846 0 0030 38.846zm-9.196-15.974a2.067 2.067 0 100-4.135 2.067 2.067 0 000 4.135z"/><path d="M30 0c16.566 0 30 13.434 30 30 0 16.566-13.434 30-30 30C13.434 60 0 46.566 0 30 0 13.434 13.434 0 30 0zM12.877 37.102c.084 1.834.375 3.086.801 4.182a8.808 8.808 0 005.038 5.038c1.096.426 2.348.717 4.181.8 1.837.084 2.424.105 7.103.105 4.678 0 5.265-.02 7.102-.104 1.834-.084 3.086-.375 4.181-.801a8.44 8.44 0 003.052-1.987 8.445 8.445 0 001.987-3.051c.425-1.096.717-2.348.8-4.181.085-1.838.105-2.425.105-7.103s-.02-5.265-.104-7.102c-.084-1.834-.375-3.086-.8-4.182a8.44 8.44 0 00-1.988-3.05 8.44 8.44 0 00-3.051-1.988c-1.096-.426-2.348-.717-4.182-.8-1.837-.084-2.424-.105-7.102-.105-4.678 0-5.265.02-7.102.105-1.834.083-3.086.374-4.182.8a8.445 8.445 0 00-3.051 1.987 8.44 8.44 0 00-1.987 3.051c-.426 1.096-.717 2.348-.801 4.182-.084 1.837-.104 2.424-.104 7.102 0 4.678.02 5.265.104 7.102z"/></svg><svg viewBox="0 0 60 60" id="instagram" xmlns="http://www.w3.org/2000/svg"><path d="M24.258 30a5.742 5.742 0 1011.484 0 5.742 5.742 0 00-11.484 0z"/><path d="M16.571 19.84a5.338 5.338 0 011.289-1.98 5.334 5.334 0 011.98-1.289c.607-.236 1.52-.516 3.199-.593 1.817-.083 2.361-.1 6.961-.1s5.145.017 6.961.1c1.68.077 2.592.357 3.199.593a5.33 5.33 0 011.98 1.289 5.34 5.34 0 011.29 1.98c.235.607.516 1.52.592 3.2.083 1.816.1 2.36.1 6.96s-.017 5.145-.1 6.962c-.076 1.68-.357 2.591-.593 3.198a5.34 5.34 0 01-1.288 1.98 5.333 5.333 0 01-1.98 1.29c-.608.236-1.52.516-3.2.593-1.816.082-2.36.1-6.96.1-4.601 0-5.146-.018-6.962-.1-1.68-.077-2.592-.358-3.199-.594a5.705 5.705 0 01-3.269-3.269c-.236-.607-.516-1.519-.593-3.198-.083-1.817-.1-2.362-.1-6.962s.017-5.144.1-6.96c.076-1.68.357-2.593.593-3.2zM30 38.846a8.846 8.846 0 100-17.692A8.846 8.846 0 0021.154 30 8.846 8.846 0 0030 38.846zm-9.196-15.974a2.067 2.067 0 100-4.135 2.067 2.067 0 000 4.135z"/><path d="M30 0c16.566 0 30 13.434 30 30 0 16.566-13.434 30-30 30C13.434 60 0 46.566 0 30 0 13.434 13.434 0 30 0zM12.877 37.102c.084 1.834.375 3.086.801 4.182a8.808 8.808 0 005.038 5.038c1.096.426 2.348.717 4.181.8 1.837.084 2.424.105 7.103.105 4.678 0 5.265-.02 7.102-.104 1.834-.084 3.086-.375 4.181-.801a8.44 8.44 0 003.052-1.987 8.445 8.445 0 001.987-3.051c.425-1.096.717-2.348.8-4.181.085-1.838.105-2.425.105-7.103s-.02-5.265-.104-7.102c-.084-1.834-.375-3.086-.8-4.182a8.44 8.44 0 00-1.988-3.05 8.44 8.44 0 00-3.051-1.988c-1.096-.426-2.348-.717-4.182-.8-1.837-.084-2.424-.105-7.102-.105-4.678 0-5.265.02-7.102.105-1.834.083-3.086.374-4.182.8a8.445 8.445 0 00-3.051 1.987 8.44 8.44 0 00-1.987 3.051c-.426 1.096-.717 2.348-.801 4.182-.084 1.837-.104 2.424-.104 7.102 0 4.678.02 5.265.104 7.102z"/></svg><svg viewBox="0 0 32 32" id="search" xmlns="http://www.w3.org/2000/svg"><path d="M27.414 24.586l-5.077-5.077A9.932 9.932 0 0024 14c0-5.514-4.486-10-10-10S4 8.486 4 14s4.486 10 10 10a9.932 9.932 0 005.509-1.663l5.077 5.077a2 2 0 102.828-2.828zM7 14c0-3.86 3.14-7 7-7s7 3.14 7 7-3.14 7-7 7-7-3.14-7-7z"/></svg><svg viewBox="0 0 60 60" id="vk" xmlns="http://www.w3.org/2000/svg"><path d="M30 0C13.432 0 0 13.431 0 30c0 16.569 13.432 30 30 30 16.568 0 30-13.431 30-30C60 13.431 46.568 0 30 0zm15.218 33.245c1.398 1.365 2.877 2.65 4.132 4.158.556.666 1.08 1.355 1.48 2.13.57 1.106.055 2.319-.935 2.384l-6.146-.001c-1.587.131-2.85-.509-3.915-1.594-.85-.865-1.639-1.789-2.458-2.683-.334-.367-.687-.713-1.106-.985-.838-.545-1.566-.378-2.046.497-.49.891-.601 1.878-.648 2.87-.067 1.449-.504 1.827-1.958 1.895-3.107.146-6.055-.325-8.795-1.892-2.418-1.382-4.288-3.332-5.919-5.54-3.174-4.304-5.606-9.027-7.79-13.887-.492-1.094-.132-1.68 1.075-1.703 2.006-.038 4.012-.033 6.018-.002.816.013 1.357.48 1.67 1.25 1.084 2.668 2.413 5.205 4.078 7.559.444.626.897 1.251 1.542 1.694.712.488 1.255.327 1.59-.468.215-.505.308-1.045.355-1.587.16-1.854.178-3.708-.098-5.555-.172-1.155-.822-1.902-1.974-2.12-.587-.111-.5-.329-.215-.664.495-.58.96-.938 1.887-.938l6.944-.001c1.094.215 1.34.706 1.488 1.808l.006 7.717c-.013.427.215 1.691.98 1.97.614.203 1.02-.29 1.386-.678 1.666-1.767 2.852-3.853 3.915-6.012.469-.951.873-1.937 1.266-2.924.292-.73.746-1.089 1.57-1.076l6.687.008c.197 0 .397.002.592.035 1.127.193 1.436.678 1.088 1.777-.55 1.727-1.615 3.166-2.658 4.609-1.117 1.544-2.308 3.034-3.414 4.585-1.017 1.418-.936 2.132.326 3.364z"/></svg></svg>